<?xml version="1.0" encoding="utf-8"?>
<!-- Generator: Adobe Illustrator 21.0.0, SVG Export Plug-In . SVG Version: 6.00 Build 0)  -->
<svg version="1.1" id="Layer_1" xmlns="http://www.w3.org/2000/svg" xmlns:xlink="http://www.w3.org/1999/xlink" x="0px" y="0px"
	 width="50px" height="50px" viewBox="0 0 50 50" enable-background="new 0 0 50 50" xml:space="preserve">
<polygon fill="#3999C6" points="47,44.864 46.998,44.863 45.888,12.364 43.365,12.364 43.365,12.364 40.333,12.364 40.333,12.364 
	4.777,12.364 3.666,47.105 40.333,50 40.333,50 43.365,47.664 "/>
<polygon opacity="0.3" fill="#FFFFFF" enable-background="new    " points="43.365,12.364 40.333,12.364 40.333,50 43.365,44.345 
	"/>
<polygon opacity="0.2" fill="#1E1E1E" enable-background="new    " points="43.388,44.302 43.365,44.345 40.333,50 43.365,47.664 
	47,44.864 "/>
<path fill="#A0A1A2" d="M24.072,6.76c0-2.451,2.144-4.446,4.779-4.446s4.777,1.995,4.777,4.446v5.604h2.296V6.76
	c0-3.728-3.173-6.76-7.073-6.76c-3.901,0-7.073,3.032-7.073,6.76v5.604h2.294V6.76z"/>
<path fill="#7A7A7A" d="M17.035,6.76c0-2.451,2.144-4.446,4.779-4.446s4.779,1.995,4.779,4.446v5.604h2.294V6.76
	c0-3.728-3.173-6.76-7.073-6.76s-7.073,3.032-7.073,6.76v5.604h2.294V6.76z"/>
<polygon fill="#FFFFFF" points="29,45.5 14,44 14,21 29,21 "/>
<rect x="16" y="23" fill="#3999C6" width="3" height="4"/>
<rect x="20" y="23" fill="#3999C6" width="3" height="4"/>
<rect x="24" y="23" fill="#3999C6" width="3" height="4"/>
<rect x="16" y="28" fill="#3999C6" width="3" height="4"/>
<rect x="20" y="28" fill="#3999C6" width="3" height="4"/>
<rect x="24" y="28" fill="#3999C6" width="3" height="4"/>
<rect x="16" y="33" fill="#3999C6" width="3" height="4"/>
<rect x="20" y="33" fill="#3999C6" width="3" height="4"/>
<rect x="24" y="33" fill="#3999C6" width="3" height="4"/>
<rect x="19" y="39" fill="#3999C6" width="5" height="6"/>
</svg>
