<?xml version="1.0" encoding="utf-8"?>
<!-- Generator: Adobe Illustrator 19.2.1, SVG Export Plug-In . SVG Version: 6.00 Build 0)  -->
<svg version="1.1" id="Layer_3" xmlns="http://www.w3.org/2000/svg" xmlns:xlink="http://www.w3.org/1999/xlink" x="0px" y="0px"
	 width="50px" height="50px" viewBox="0 0 50 50" enable-background="new 0 0 50 50" xml:space="preserve">
<path fill="#FF8C00" d="M44.833,17h-8.267L19,34.567L32.433,48L50,30.433v-8.267L44.833,17z M45.992,25.392
	c-1.211,1.211-3.173,1.211-4.384,0s-1.211-3.173,0-4.384s3.173-1.211,4.384,0S47.203,24.181,45.992,25.392z"/>
<polygon opacity="0.2" enable-background="new    " points="25.024,40.59 43,22.614 43,17 36.567,17 19,34.567 "/>
<path fill="#DD5900" d="M43.8,21.1c0.561,0,1.088,0.218,1.485,0.615S45.9,22.639,45.9,23.2s-0.218,1.088-0.615,1.485
	C44.888,25.082,44.361,25.3,43.8,25.3s-1.088-0.218-1.485-0.615S41.7,23.761,41.7,23.2s0.218-1.088,0.615-1.485
	C42.712,21.318,43.239,21.1,43.8,21.1 M43.8,20.1c-0.793,0-1.587,0.303-2.192,0.908c-1.211,1.211-1.211,3.173,0,4.384
	c0.605,0.605,1.399,0.908,2.192,0.908s1.587-0.303,2.192-0.908c1.211-1.211,1.211-3.173,0-4.384
	C45.387,20.403,44.593,20.1,43.8,20.1L43.8,20.1z"/>
<rect x="32.824" y="24.071" transform="matrix(0.7071 -0.7071 0.7071 0.7071 -7.3179 31.5079)" fill="#FFFFFF" width="3.1" height="1.033"/>
<rect x="35.32" y="23.037" transform="matrix(0.7071 -0.7071 0.7071 0.7071 -6.8896 32.5415)" fill="#FFFFFF" width="1.033" height="3.1"/>
<rect x="40.862" y="32.108" transform="matrix(0.7071 -0.7071 0.7071 0.7071 -10.6467 39.5451)" fill="#FFFFFF" width="3.1" height="1.033"/>
<rect x="41.896" y="29.613" transform="matrix(0.7071 -0.7071 0.7071 0.7071 -9.6134 39.1175)" fill="#FFFFFF" width="1.033" height="3.1"/>
<rect x="23.325" y="33.57" transform="matrix(0.7071 -0.7071 0.7071 0.7071 -16.8168 27.5732)" fill="#FFFFFF" width="3.1" height="1.033"/>
<rect x="27.13" y="30.281" transform="matrix(0.7071 -0.7071 0.7071 0.7071 -13.5284 28.9353)" fill="#FFFFFF" width="2.067" height="1.033"/>
<rect x="30.053" y="27.359" transform="matrix(0.7071 -0.7071 0.7071 0.7071 -10.6063 30.1458)" fill="#FFFFFF" width="2.067" height="1.033"/>
<rect x="35.168" y="38.319" transform="matrix(0.7071 -0.7071 0.7071 0.7071 -16.8581 36.9729)" fill="#FFFFFF" width="2.067" height="1.033"/>
<rect x="38.09" y="35.396" transform="matrix(0.7071 -0.7071 0.7071 0.7071 -13.935 38.1831)" fill="#FFFFFF" width="2.067" height="1.033"/>
<rect x="24.36" y="33.997" transform="matrix(0.7071 -0.7071 0.7071 0.7071 -17.8497 28.0018)" fill="#FFFFFF" width="1.033" height="3.1"/>
<rect x="31.364" y="41.607" transform="matrix(0.7071 -0.7071 0.7071 0.7071 -20.1458 35.6112)" fill="#FFFFFF" width="3.1" height="1.033"/>
<rect x="30.936" y="40.573" transform="matrix(0.7071 -0.7071 0.7071 0.7071 -20.5734 34.5779)" fill="#FFFFFF" width="1.033" height="3.1"/>
<rect x="27.648" y="37.802" transform="matrix(0.7071 -0.7071 0.7071 0.7071 -19.2117 31.2903)" fill="#FFFFFF" width="1.033" height="2.067"/>
<rect x="38.608" y="26.842" transform="matrix(0.7071 -0.7071 0.7071 0.7071 -8.2516 35.8298)" fill="#FFFFFF" width="1.033" height="2.067"/>
<polygon opacity="0.1" fill="#FFFFFF" enable-background="new    " points="34.5,19.067 19,34.567 32.433,48 34.5,45.933 "/>
<path fill="#59B3D8" d="M35,4H23.8L0,27.8L18.2,46L42,22.2V11L35,4z M36.57,15.37c-1.64,1.64-4.299,1.64-5.94,0s-1.64-4.299,0-5.94
	c1.64-1.641,4.299-1.64,5.94,0S38.21,13.73,36.57,15.37z"/>
<path fill="#0072C6" d="M33.6,9.2c0.855,0,1.658,0.333,2.263,0.937c1.248,1.248,1.248,3.278,0,4.525
	C35.258,15.267,34.455,15.6,33.6,15.6s-1.658-0.333-2.263-0.937c-1.248-1.248-1.248-3.278,0-4.525C31.942,9.533,32.745,9.2,33.6,9.2
	 M33.6,8.2c-1.075,0-2.15,0.41-2.97,1.23c-1.64,1.64-1.64,4.299,0,5.94c0.82,0.82,1.895,1.23,2.97,1.23s2.15-0.41,2.97-1.23
	c1.64-1.64,1.64-4.299,0-5.94C35.75,8.61,34.675,8.2,33.6,8.2L33.6,8.2z"/>
<rect x="18.73" y="13.58" transform="matrix(0.7071 -0.7071 0.7071 0.7071 -3.9963 18.9117)" fill="#FFFFFF" width="4.2" height="1.4"/>
<rect x="22.11" y="12.18" transform="matrix(0.7071 -0.7071 0.7071 0.7071 -3.4164 20.3118)" fill="#FFFFFF" width="1.4" height="4.2"/>
<rect x="29.62" y="24.47" transform="matrix(0.7071 -0.7071 0.7071 0.7071 -8.5073 29.8013)" fill="#FFFFFF" width="4.2" height="1.4"/>
<rect x="31.02" y="21.09" transform="matrix(0.7071 -0.7071 0.7071 0.7071 -7.1072 29.2214)" fill="#FFFFFF" width="1.4" height="4.2"/>
<rect x="5.861" y="26.45" transform="matrix(0.7071 -0.7071 0.7071 0.7071 -16.8661 13.5812)" fill="#FFFFFF" width="4.2" height="1.4"/>
<rect x="11.016" y="21.995" transform="matrix(0.7071 -0.7071 0.7071 0.7071 -12.4113 15.4266)" fill="#FFFFFF" width="2.8" height="1.4"/>
<rect x="14.975" y="18.035" transform="matrix(0.7071 -0.7071 0.7071 0.7071 -8.4511 17.0663)" fill="#FFFFFF" width="2.8" height="1.4"/>
<rect x="21.905" y="32.884" transform="matrix(0.7071 -0.7071 0.7071 0.7071 -16.9213 26.3159)" fill="#FFFFFF" width="2.8" height="1.4"/>
<rect x="25.865" y="28.925" transform="matrix(0.7071 -0.7071 0.7071 0.7071 -12.9621 27.9559)" fill="#FFFFFF" width="2.8" height="1.4"/>
<rect x="7.261" y="27.03" transform="matrix(0.7071 -0.7071 0.7071 0.7071 -18.2662 14.161)" fill="#FFFFFF" width="1.4" height="4.2"/>
<rect x="16.75" y="37.339" transform="matrix(0.7071 -0.7071 0.7071 0.7071 -21.3761 24.4704)" fill="#FFFFFF" width="4.2" height="1.4"/>
<rect x="16.17" y="35.938" transform="matrix(0.7071 -0.7071 0.7071 0.7071 -21.956 23.0704)" fill="#FFFFFF" width="1.4" height="4.2"/>
<rect x="11.716" y="32.184" transform="matrix(0.7071 -0.7071 0.7071 0.7071 -20.1109 18.6162)" fill="#FFFFFF" width="1.4" height="2.8"/>
<rect x="26.565" y="17.335" transform="matrix(0.7071 -0.7071 0.7071 0.7071 -5.2618 24.7666)" fill="#FFFFFF" width="1.4" height="2.8"/>
<polygon opacity="0.1" fill="#FFFFFF" enable-background="new    " points="21,6.8 0,27.8 18.2,46 21,43.2 "/>
</svg>
