<?xml version="1.0" encoding="utf-8"?>
<!-- Generator: Adobe Illustrator 20.0.0, SVG Export Plug-In . SVG Version: 6.00 Build 0)  -->
<svg version="1.1" id="Layer_1" xmlns="http://www.w3.org/2000/svg" xmlns:xlink="http://www.w3.org/1999/xlink" x="0px" y="0px"
	 width="50px" height="50px" viewBox="0 0 50 50" enable-background="new 0 0 50 50" xml:space="preserve">
<path fill="#3E3E3E" d="M48,0H25.995C25.995,0,25,0.004,25,1.002c0,0.491,0,26.123,0,26.123c3.556,0.131,6.593,2.276,7.992,5.341
	c0.15-0.008,0.623-0.023,0.774-0.023c4.848,0,8.778,3.93,8.778,8.778c0,2.737-1.258,5.172-3.222,6.778H48c0,0,1-0.043,1-1
	c0-6.723,0-45.091,0-46C49,0.004,48,0,48,0z"/>
<rect x="28" y="4" fill="#FFFFFF" width="4" height="7"/>
<rect x="35" y="4" fill="#FFFFFF" width="4" height="7"/>
<rect x="42" y="4" fill="#FFFFFF" width="4" height="7"/>
<rect x="28" y="15" fill="#FFFFFF" width="4" height="7"/>
<rect x="35" y="15" fill="#FFFFFF" width="4" height="7"/>
<rect x="42" y="15" fill="#FFFFFF" width="4" height="7"/>
<rect x="28" y="26" fill="#FFFFFF" width="4" height="7"/>
<rect x="35" y="26" fill="#FFFFFF" width="4" height="7"/>
<rect x="42" y="26" fill="#FFFFFF" width="4" height="7"/>
<path fill="#FFFFFF" d="M35.038,33"/>
<path fill="#59B4D9" d="M7.599,40c-2.436-0.127-4.344-2.267-4.344-4.703c0-2.529,2.057-4.586,4.567-4.587l0.054,0.003
	c0.054,0.004,0.108,0.007,0.162,0.009l1.467,0.062l0.572-1.352c0.942-2.225,3.111-3.662,5.526-3.662
	c1.411,0,2.609,0.486,3.633,1.302c0.674-0.369,1.391-0.665,2.143-0.881c-1.476-1.559-3.458-2.538-5.776-2.538
	c-3.36,0-6.243,2.042-7.476,4.954c-0.096-0.004-0.189-0.014-0.286-0.014c-3.702,0-6.703,3.001-6.703,6.703
	c0,3.583,2.813,6.519,6.351,6.703h16.129v-2H7.599z"/>
<path fill="#59B4D9" d="M33.766,32.443c-0.151,0-0.624,0.015-0.774,0.023c-1.443-3.163-4.626-5.366-8.33-5.366
	c-4.54,0-8.298,3.306-9.024,7.64c-0.046-0.001-0.09-0.007-0.136-0.007c-2.824,0-5.681,1.987-7.002,4.267h12.311
	c0.718-1.332,2.11-2.25,3.727-2.25c2.344,0,4.25,1.906,4.25,4.25s-1.907,4.25-4.25,4.25c-1.617,0-3.008-0.918-3.727-2.25H7.834
	c0.047,0.245,0.106,0.53,0.188,0.893C8.83,47.487,11.809,50,15.502,50h18.32l0.326-0.019c4.67-0.201,8.397-4.04,8.397-8.759
	C42.544,36.373,38.614,32.443,33.766,32.443z"/>
<circle fill="#59B4D9" cx="24.538" cy="41" r="3"/>
</svg>
