<?xml version="1.0" encoding="utf-8"?>
<!-- Generator: Adobe Illustrator 21.0.0, SVG Export Plug-In . SVG Version: 6.00 Build 0)  -->
<svg version="1.1" id="Layer_1" xmlns="http://www.w3.org/2000/svg" xmlns:xlink="http://www.w3.org/1999/xlink" x="0px" y="0px"
	 width="50px" height="50px" viewBox="0 0 50 50" enable-background="new 0 0 50 50" xml:space="preserve">
<path fill="#DD5900" d="M21,23l4,6l8-15.5L40,25h3.9c0.6-1.6,1-4.4,1-6c0-7.8-6.8-10.9-9.9-10.9S29,8,26,14c-3-5.9-5.9-5.9-9-5.9
	S7.1,10.3,7.1,19c0,1.1,0.2,2.9,0.5,4H21z"/>
<path fill="#BA141A" d="M38,28l-5-8l-7,15l-7-9H9c5.1,9.3,16.9,18,16.9,18S36.8,36.6,42,28H38z"/>
<polygon fill="#BA141A" points="34.7,28 50,28 47,31 34.7,31 "/>
<polygon fill="#DD5900" points="24,20 0,20 3,23 24,23 "/>
</svg>
